<svg xmlns="http://www.w3.org/2000/svg" width="1200" height="760" viewBox="0 0 1200 760" font-family="Manrope, Inter, -apple-system, 'Segoe UI', sans-serif">
<defs>
  <linearGradient id="ch01-map-grad" x1="0" y1="0" x2="1" y2="1">
    <stop offset="0%" stop-color="#667eea"/><stop offset="100%" stop-color="#764ba2"/>
  </linearGradient>
  <linearGradient id="ch01-map-warm" x1="0" y1="0" x2="1" y2="1">
    <stop offset="0%" stop-color="#f59e0b"/><stop offset="100%" stop-color="#ef4444"/>
  </linearGradient>
  <linearGradient id="ch01-map-go" x1="0" y1="0" x2="1" y2="1">
    <stop offset="0%" stop-color="#34d399"/><stop offset="100%" stop-color="#06b6d4"/>
  </linearGradient>
</defs>
<circle cx="600" cy="380" r="420" fill="#f1f5f9" opacity=".6"/>
<circle cx="600" cy="380" r="364" fill="#ffffff" stroke="#e2e8f0"/><path d="M 738 380 C 738 320, 600 132, 600 92" fill="none" stroke="#818cf8" stroke-width="3"/><rect x="491" y="8" width="218" height="84" rx="18" fill="#ffffff" stroke="#e2e8f0" stroke-width="1.5" filter="drop-shadow(0 6px 10px rgba(15,23,42,.06))"/><text x="600" y="44" text-anchor="middle" font-size="18" font-weight="800" fill="#0f172a">Reproduce</text><circle cx="525.52" cy="72" r="4" fill="url(#ch01-map-grad)"/>
<text x="596" y="77" text-anchor="middle" font-size="13.5" font-weight="500" fill="#64748b">control the case</text><path d="M 738 380 C 789.9615242270663 350, 756.7505980849834 256, 791.391614236361 236.00000000000003" fill="none" stroke="#818cf8" stroke-width="3"/><rect x="776.7883832488648" y="173.00000000000003" width="218" height="84" rx="18" fill="#ffffff" stroke="#e2e8f0" stroke-width="1.5" filter="drop-shadow(0 6px 10px rgba(15,23,42,.06))"/><text x="885.7883832488648" y="209.00000000000003" text-anchor="middle" font-size="18" font-weight="800" fill="#0f172a">Diagnose</text><circle cx="811.3083832488647" cy="237.00000000000003" r="4" fill="url(#ch01-map-grad)"/>
<text x="881.7883832488648" y="242.00000000000003" text-anchor="middle" font-size="13.5" font-weight="500" fill="#64748b">hypothesis first</text><path d="M 738 380 C 789.9615242270663 410, 756.7505980849834 504, 791.391614236361 524" fill="none" stroke="#818cf8" stroke-width="3"/><rect x="776.7883832488648" y="503" width="218" height="84" rx="18" fill="#ffffff" stroke="#e2e8f0" stroke-width="1.5" filter="drop-shadow(0 6px 10px rgba(15,23,42,.06))"/><text x="885.7883832488648" y="539" text-anchor="middle" font-size="18" font-weight="800" fill="#0f172a">Fix</text><circle cx="803.2483832488648" cy="567" r="4" fill="url(#ch01-map-grad)"/>
<text x="881.7883832488648" y="572" text-anchor="middle" font-size="13.5" font-weight="500" fill="#64748b">cause, not symptom</text><path d="M 738 380 C 738 440, 600 628, 600 668" fill="none" stroke="#818cf8" stroke-width="3"/><rect x="491" y="668" width="218" height="84" rx="18" fill="#ffffff" stroke="#e2e8f0" stroke-width="1.5" filter="drop-shadow(0 6px 10px rgba(15,23,42,.06))"/><text x="600" y="704" text-anchor="middle" font-size="18" font-weight="800" fill="#0f172a">Reflect</text><circle cx="509.4" cy="732" r="4" fill="url(#ch01-map-grad)"/>
<text x="596" y="737" text-anchor="middle" font-size="13.5" font-weight="500" fill="#64748b">learn, ship, move on</text><path d="M 738 380 C 686.0384757729337 410, 443.24940191501656 504, 408.60838576363903 524" fill="none" stroke="#818cf8" stroke-width="3"/><rect x="205.21161675113524" y="503" width="218" height="84" rx="18" fill="#ffffff" stroke="#e2e8f0" stroke-width="1.5" filter="drop-shadow(0 6px 10px rgba(15,23,42,.06))"/><text x="314.21161675113524" y="539" text-anchor="middle" font-size="18" font-weight="800" fill="#0f172a">Negative results</text><circle cx="235.70161675113525" cy="567" r="4" fill="url(#ch01-map-grad)"/>
<text x="310.21161675113524" y="572" text-anchor="middle" font-size="13.5" font-weight="500" fill="#64748b">data, not failure</text><path d="M 738 380 C 686.0384757729337 350, 443.24940191501656 255.99999999999997, 408.60838576363903 235.99999999999997" fill="none" stroke="#818cf8" stroke-width="3"/><rect x="205.21161675113524" y="172.99999999999997" width="218" height="84" rx="18" fill="#ffffff" stroke="#e2e8f0" stroke-width="1.5" filter="drop-shadow(0 6px 10px rgba(15,23,42,.06))"/><text x="314.21161675113524" y="208.99999999999997" text-anchor="middle" font-size="18" font-weight="800" fill="#0f172a">Theory-hopping</text><circle cx="267.94161675113526" cy="236.99999999999997" r="4" fill="url(#ch01-map-grad)"/>
<text x="310.21161675113524" y="241.99999999999997" text-anchor="middle" font-size="13.5" font-weight="500" fill="#64748b">the enemy</text><rect x="462" y="326" width="276" height="108" rx="28" fill="url(#ch01-map-grad)" filter="drop-shadow(0 10px 16px rgba(102,126,234,.35))"/><text x="600" y="372" text-anchor="middle" font-size="18" font-weight="800" fill="#ffffff">DEBUGGING IS A SYSTEM</text><text x="600" y="404" text-anchor="middle" font-size="15" font-weight="500" fill="rgba(255,255,255,.85)">the loop beats the instinct</text></svg>