<svg xmlns="http://www.w3.org/2000/svg" width="1140" height="470" viewBox="0 0 1140 470" font-family="Manrope, Inter, -apple-system, 'Segoe UI', sans-serif">
<defs>
  <linearGradient id="ch11-hand-grad" x1="0" y1="0" x2="1" y2="1">
    <stop offset="0%" stop-color="#667eea"/><stop offset="100%" stop-color="#764ba2"/>
  </linearGradient>
  <linearGradient id="ch11-hand-warm" x1="0" y1="0" x2="1" y2="1">
    <stop offset="0%" stop-color="#f59e0b"/><stop offset="100%" stop-color="#ef4444"/>
  </linearGradient>
  <linearGradient id="ch11-hand-go" x1="0" y1="0" x2="1" y2="1">
    <stop offset="0%" stop-color="#34d399"/><stop offset="100%" stop-color="#06b6d4"/>
  </linearGradient>
</defs><rect x="30" y="150" width="470" height="294" rx="24" fill="#eef2ff" stroke="#e2e8f0" stroke-width="1.5"/><rect x="30" y="150" width="470" height="54" rx="24" fill="url(#ch11-hand-grad)" opacity=".95"/><text x="265" y="172" text-anchor="middle" font-size="17" font-weight="800" fill="#ffffff">Let the model</text><text x="265" y="190" text-anchor="middle" font-size="12.5" font-weight="500" fill="rgba(255,255,255,.85)">the cheap parts</text><circle cx="58" cy="244" r="7" fill="url(#ch11-hand-grad)"/><text x="78" y="249" font-size="15" font-weight="600" fill="#0f172a">boilerplate, mocks, tests</text><circle cx="58" cy="310" r="7" fill="url(#ch11-hand-grad)"/><text x="78" y="315" font-size="15" font-weight="600" fill="#0f172a">first drafts, refactors</text><circle cx="58" cy="376" r="7" fill="url(#ch11-hand-grad)"/><text x="78" y="381" font-size="15" font-weight="600" fill="#0f172a">repetitive glue</text><rect x="630" y="150" width="470" height="294" rx="24" fill="#f5f3ff" stroke="#e2e8f0" stroke-width="1.5"/><rect x="630" y="150" width="470" height="54" rx="24" fill="url(#ch11-hand-grad)" opacity=".95"/><text x="865" y="172" text-anchor="middle" font-size="17" font-weight="800" fill="#ffffff">Keep to yourself</text><text x="865" y="190" text-anchor="middle" font-size="12.5" font-weight="500" fill="rgba(255,255,255,.85)">the expensive parts</text><circle cx="658" cy="244" r="7" fill="url(#ch11-hand-grad)"/><text x="678" y="249" font-size="15" font-weight="600" fill="#0f172a">design decisions</text><circle cx="658" cy="310" r="7" fill="url(#ch11-hand-grad)"/><text x="678" y="315" font-size="15" font-weight="600" fill="#0f172a">data + security boundaries</text><circle cx="658" cy="376" r="7" fill="url(#ch11-hand-grad)"/><text x="678" y="381" font-size="15" font-weight="600" fill="#0f172a">code you can't easily prove</text><circle cx="570" cy="300" r="44" fill="url(#ch11-hand-warm)"/>
<text x="570" y="310" text-anchor="middle" font-size="28" font-weight="800" fill="#ffffff">VS</text></svg>