<svg xmlns="http://www.w3.org/2000/svg" width="1120" height="620" viewBox="0 0 1120 620" font-family="Manrope, Inter, -apple-system, 'Segoe UI', sans-serif">
<defs>
  <linearGradient id="ch11-trust-grad" x1="0" y1="0" x2="1" y2="1">
    <stop offset="0%" stop-color="#667eea"/><stop offset="100%" stop-color="#764ba2"/>
  </linearGradient>
  <linearGradient id="ch11-trust-warm" x1="0" y1="0" x2="1" y2="1">
    <stop offset="0%" stop-color="#f59e0b"/><stop offset="100%" stop-color="#ef4444"/>
  </linearGradient>
  <linearGradient id="ch11-trust-go" x1="0" y1="0" x2="1" y2="1">
    <stop offset="0%" stop-color="#34d399"/><stop offset="100%" stop-color="#06b6d4"/>
  </linearGradient>
</defs>
<rect x="410" y="40" width="300" height="84" rx="22" fill="url(#ch11-trust-grad)" filter="drop-shadow(0 10px 16px rgba(102,126,234,.35))"/>
<text x="560" y="90" text-anchor="middle" font-size="11" font-weight="800" fill="#ffffff">Should you let the model write this?</text>
<text x="560" y="114" text-anchor="middle" font-size="14" font-weight="500" fill="rgba(255,255,255,.85)">the honest filter</text><path d="M 560 124 C 560 100, 215 100, 215 124" fill="none" stroke="#818cf8" stroke-width="3" marker-end="url(#ch11-trust-arr)"/><rect x="60" y="130" width="310" height="124" rx="18" fill="#ffffff" stroke="#e2e8f0" stroke-width="1.5" filter="drop-shadow(0 6px 10px rgba(15,23,42,.06))"/><rect x="60" y="146" width="182.24" height="34" rx="10" fill="#34d399" opacity=".92"/>
<text x="73" y="168" font-size="13" font-weight="800" fill="#ffffff">YES</text><text x="76" y="212" font-size="18" font-weight="800" fill="#0f172a">Boilerplate + glue</text><text x="76" y="236" font-size="13.5" font-weight="500" fill="#64748b">let it write, you review shape</text><path d="M 560 124 C 560 100, 715 100, 715 124" fill="none" stroke="#818cf8" stroke-width="3" marker-end="url(#ch11-trust-arr)"/><rect x="560" y="130" width="310" height="124" rx="18" fill="#ffffff" stroke="#e2e8f0" stroke-width="1.5" filter="drop-shadow(0 6px 10px rgba(15,23,42,.06))"/><rect x="560" y="146" width="173.56" height="34" rx="10" fill="#64748b" opacity=".92"/>
<text x="573" y="168" font-size="13" font-weight="800" fill="#ffffff">CAREFUL</text><text x="576" y="212" font-size="18" font-weight="800" fill="#0f172a">Logic + algorithm</text><text x="576" y="236" font-size="13.5" font-weight="500" fill="#64748b">you sketch, it fills, tests gate</text><path d="M 560 124 C 560 100, 1215 100, 1215 124" fill="none" stroke="#818cf8" stroke-width="3" marker-end="url(#ch11-trust-arr)"/><rect x="1060" y="130" width="310" height="124" rx="18" fill="#ffffff" stroke="#e2e8f0" stroke-width="1.5" filter="drop-shadow(0 6px 10px rgba(15,23,42,.06))"/><rect x="1060" y="146" width="164.88" height="34" rx="10" fill="#f87171" opacity=".92"/>
<text x="1073" y="168" font-size="13" font-weight="800" fill="#ffffff">NO</text><text x="1076" y="212" font-size="18" font-weight="800" fill="#0f172a">Security / money</text><text x="1076" y="236" font-size="13.5" font-weight="500" fill="#64748b">human hand, human review</text><defs><marker id="ch11-trust-arr" viewBox="0 0 10 10" refX="8" refY="5" markerWidth="7" markerHeight="7" orient="auto-start-reverse"><path d="M 0 0 L 10 5 L 0 10 z" fill="#818cf8"/></marker></defs></svg>